<svg width="35" height="35" viewBox="0 0 35 35" fill="none" xmlns="http://www.w3.org/2000/svg">
<g clip-path="url(#clip0_118_68)">
<path d="M15.0512 9.22714L17.1418 3.40912L30.6295 9.67556" fill="#00B612"/>
<path d="M15.0512 9.22714L17.1418 3.40912L30.6295 9.67556" stroke="black" stroke-width="0.124996"/>
<path d="M18.0512 9.22714L20.1418 3.40912L33.6295 9.67556" fill="#E60A0A"/>
<path d="M18.0512 9.22714L20.1418 3.40912L33.6295 9.67556" stroke="black" stroke-width="0.124996"/>
<path d="M13.0512 10.2271L15.1418 4.40912L28.6295 10.6756" fill="#DCDF0B"/>
<path d="M13.0512 10.2271L15.1418 4.40912L28.6295 10.6756" stroke="black" stroke-width="0.124996"/>
<path d="M25.7795 35C28.0996 35 29.9804 33.1192 29.9804 30.799C29.9804 28.4789 28.0996 26.5981 25.7795 26.5981C23.4593 26.5981 21.5785 28.4789 21.5785 30.799C21.5785 33.1192 23.4593 35 25.7795 35Z" fill="black" stroke="black" stroke-width="0.124996"/>
<path d="M13.1071 35C15.4272 35 17.3081 33.1192 17.3081 30.799C17.3081 28.4789 15.4272 26.5981 13.1071 26.5981C10.787 26.5981 8.90613 28.4789 8.90613 30.799C8.90613 33.1192 10.787 35 13.1071 35Z" fill="black" stroke="black" stroke-width="0.124996"/>
<path d="M9.94956 10.3466L7.18902 2.18196H0.0465088V0H8.75522L12.0161 9.64767L9.94956 10.3466Z" fill="black" stroke="black" stroke-width="0.124996"/>
<path d="M4.65649 8.51459H34.9535L29.1787 24.7169H9.7018L4.65649 8.51459Z" fill="#AB08F6" stroke="black" stroke-width="0.124996"/>
</g>
<defs>
<clipPath id="clip0_118_68">
<rect width="35" height="35" fill="white"/>
</clipPath>
</defs>
</svg>
