<svg width="139" height="138" viewBox="0 0 139 138" fill="none" xmlns="http://www.w3.org/2000/svg">
<path d="M86.4005 51.9999C86.4005 51.9999 87.5055 37.1273 73.8683 35.4313C62.1805 34.2389 58.6222 45.0918 58.6222 45.0918C58.6222 45.0918 55.1031 41.71 50.3275 44.4726C46.0525 47.1092 46.8084 51.9369 46.8084 51.9369C46.8084 51.9369 37.3151 53.7809 37.3151 63.4499C37.5262 73.1069 47.6222 73.2039 47.6222 73.2039H63.5425V62.9974H58.4349L66.9475 54.492L75.4601 62.9974H70.3526V73.2039H84.7678C84.7678 73.2039 94.1657 73.2141 95.4852 64.0265C96.1134 53.9799 86.4005 51.9999 86.4005 51.9999Z" fill="#9C9999"/>
<path d="M52.1624 83.1538H53.3073V89.4138C53.3073 90.0601 53.155 90.6371 52.8503 91.1449C52.5487 91.6497 52.1224 92.0482 51.5715 92.3406C51.0206 92.6299 50.3743 92.7746 49.6326 92.7746C48.8909 92.7746 48.2446 92.6299 47.6937 92.3406C47.1428 92.0482 46.715 91.6497 46.4103 91.1449C46.1087 90.6371 45.9579 90.0601 45.9579 89.4138V83.1538H47.1028V89.3214C47.1028 89.7831 47.2043 90.194 47.4074 90.554C47.6106 90.911 47.8999 91.1926 48.2753 91.3989C48.6539 91.602 49.1063 91.7035 49.6326 91.7035C50.1589 91.7035 50.6113 91.602 50.9898 91.3989C51.3684 91.1926 51.6577 90.911 51.8577 90.554C52.0609 90.194 52.1624 89.7831 52.1624 89.3214V83.1538ZM55.4459 95.2675V85.5175H56.4984V86.6439H56.6277C56.7077 86.5208 56.8185 86.3638 56.9601 86.173C57.1047 85.9791 57.3109 85.8068 57.5787 85.656C57.8495 85.5021 58.2158 85.4251 58.6774 85.4251C59.2745 85.4251 59.8008 85.5744 60.2563 85.8729C60.7118 86.1715 61.0672 86.5946 61.3227 87.1425C61.5781 87.6903 61.7058 88.3366 61.7058 89.0814C61.7058 89.8323 61.5781 90.4832 61.3227 91.0341C61.0672 91.582 60.7133 92.0067 60.2609 92.3083C59.8085 92.6068 59.2868 92.7561 58.6959 92.7561C58.2404 92.7561 57.8757 92.6807 57.6018 92.5299C57.3279 92.376 57.1171 92.2021 56.9693 92.0082C56.8216 91.8113 56.7077 91.6481 56.6277 91.5189H56.5354V95.2675H55.4459ZM56.5169 89.0629C56.5169 89.5984 56.5954 90.0708 56.7524 90.4802C56.9093 90.8864 57.1386 91.205 57.4402 91.4358C57.7418 91.6635 58.1111 91.7774 58.5482 91.7774C59.0037 91.7774 59.3837 91.6574 59.6884 91.4173C59.9962 91.1742 60.227 90.848 60.3809 90.4386C60.5379 90.0262 60.6163 89.5676 60.6163 89.0629C60.6163 88.5643 60.5394 88.115 60.3855 87.7149C60.2347 87.3117 60.0054 86.9932 59.6977 86.7593C59.393 86.5223 59.0098 86.4038 58.5482 86.4038C58.105 86.4038 57.7326 86.5162 57.431 86.7408C57.1294 86.9624 56.9016 87.2733 56.7477 87.6734C56.5939 88.0704 56.5169 88.5336 56.5169 89.0629ZM64.4573 83.1538V92.6084H63.3678V83.1538H64.4573ZM69.3334 92.7561C68.6933 92.7561 68.1316 92.6038 67.6484 92.2991C67.1683 91.9944 66.7928 91.5681 66.522 91.0203C66.2542 90.4725 66.1203 89.8323 66.1203 89.0998C66.1203 88.3612 66.2542 87.7164 66.522 87.1655C66.7928 86.6146 67.1683 86.1868 67.6484 85.8822C68.1316 85.5775 68.6933 85.4251 69.3334 85.4251C69.9736 85.4251 70.5337 85.5775 71.0138 85.8822C71.497 86.1868 71.8725 86.6146 72.1402 87.1655C72.4111 87.7164 72.5465 88.3612 72.5465 89.0998C72.5465 89.8323 72.4111 90.4725 72.1402 91.0203C71.8725 91.5681 71.497 91.9944 71.0138 92.2991C70.5337 92.6038 69.9736 92.7561 69.3334 92.7561ZM69.3334 91.7774C69.8197 91.7774 70.2198 91.6528 70.5337 91.4035C70.8476 91.1542 71.08 90.8264 71.2308 90.4202C71.3816 90.0139 71.457 89.5738 71.457 89.0998C71.457 88.6259 71.3816 88.1842 71.2308 87.7749C71.08 87.3656 70.8476 87.0347 70.5337 86.7824C70.2198 86.53 69.8197 86.4038 69.3334 86.4038C68.8471 86.4038 68.447 86.53 68.1331 86.7824C67.8192 87.0347 67.5868 87.3656 67.436 87.7749C67.2852 88.1842 67.2098 88.6259 67.2098 89.0998C67.2098 89.5738 67.2852 90.0139 67.436 90.4202C67.5868 90.8264 67.8192 91.1542 68.1331 91.4035C68.447 91.6528 68.8471 91.7774 69.3334 91.7774ZM76.2962 92.7746C75.8469 92.7746 75.4391 92.6899 75.0728 92.5207C74.7066 92.3483 74.4158 92.1006 74.2003 91.7774C73.9849 91.4512 73.8772 91.0572 73.8772 90.5956C73.8772 90.1893 73.9572 89.86 74.1172 89.6077C74.2773 89.3522 74.4912 89.1522 74.7589 89.0075C75.0267 88.8629 75.3221 88.7551 75.6453 88.6844C75.9715 88.6105 76.2993 88.552 76.6286 88.5089C77.0595 88.4535 77.4088 88.412 77.6765 88.3843C77.9474 88.3535 78.1443 88.3027 78.2674 88.2319C78.3936 88.1612 78.4567 88.0381 78.4567 87.8626V87.8257C78.4567 87.3702 78.3321 87.0163 78.0828 86.7639C77.8366 86.5115 77.4626 86.3854 76.961 86.3854C76.4409 86.3854 76.0331 86.4992 75.7376 86.727C75.4422 86.9547 75.2344 87.1979 75.1144 87.4564L74.0803 87.0871C74.265 86.6562 74.5112 86.3207 74.8189 86.0807C75.1298 85.8375 75.4683 85.6683 75.8346 85.5729C76.2039 85.4744 76.567 85.4251 76.9241 85.4251C77.1518 85.4251 77.4134 85.4528 77.7089 85.5082C78.0074 85.5605 78.2951 85.6698 78.5721 85.836C78.8522 86.0022 79.0846 86.253 79.2692 86.5885C79.4539 86.9239 79.5462 87.3733 79.5462 87.9365V92.6084H78.4567V91.6481H78.4013C78.3275 91.802 78.2044 91.9667 78.032 92.1421C77.8597 92.3175 77.6304 92.4668 77.3441 92.5899C77.0579 92.713 76.7086 92.7746 76.2962 92.7746ZM76.4624 91.7959C76.8933 91.7959 77.2564 91.7112 77.5519 91.542C77.8504 91.3727 78.0751 91.1542 78.2259 90.8864C78.3798 90.6187 78.4567 90.3371 78.4567 90.0416V89.0444C78.4106 89.0998 78.309 89.1506 78.152 89.1968C77.9982 89.2399 77.8196 89.2783 77.6165 89.3122C77.4165 89.343 77.221 89.3707 77.0302 89.3953C76.8425 89.4168 76.6901 89.4353 76.5732 89.4507C76.2901 89.4876 76.0254 89.5476 75.7792 89.6307C75.536 89.7108 75.3391 89.8323 75.1883 89.9954C75.0405 90.1555 74.9667 90.374 74.9667 90.651C74.9667 91.0295 75.1067 91.3158 75.3868 91.5096C75.6699 91.7005 76.0285 91.7959 76.4624 91.7959ZM84.2123 92.7561C83.6214 92.7561 83.0997 92.6068 82.6473 92.3083C82.1949 92.0067 81.841 91.582 81.5855 91.0341C81.3301 90.4832 81.2024 89.8323 81.2024 89.0814C81.2024 88.3366 81.3301 87.6903 81.5855 87.1425C81.841 86.5946 82.1965 86.1715 82.6519 85.8729C83.1074 85.5744 83.6337 85.4251 84.2308 85.4251C84.6924 85.4251 85.0571 85.5021 85.3249 85.656C85.5957 85.8068 85.8019 85.9791 85.9435 86.173C86.0881 86.3638 86.2005 86.5208 86.2805 86.6439H86.3728V83.1538H87.4623V92.6084H86.4098V91.5189H86.2805C86.2005 91.6481 86.0866 91.8113 85.9389 92.0082C85.7911 92.2021 85.5803 92.376 85.3064 92.5299C85.0325 92.6807 84.6678 92.7561 84.2123 92.7561ZM84.36 91.7774C84.7971 91.7774 85.1664 91.6635 85.468 91.4358C85.7696 91.205 85.9989 90.8864 86.1559 90.4802C86.3128 90.0708 86.3913 89.5984 86.3913 89.0629C86.3913 88.5336 86.3143 88.0704 86.1605 87.6734C86.0066 87.2733 85.7788 86.9624 85.4772 86.7408C85.1756 86.5162 84.8032 86.4038 84.36 86.4038C83.8984 86.4038 83.5137 86.5223 83.2059 86.7593C82.9012 86.9932 82.6719 87.3117 82.5181 87.7149C82.3673 88.115 82.2919 88.5643 82.2919 89.0629C82.2919 89.5676 82.3688 90.0262 82.5227 90.4386C82.6796 90.848 82.9105 91.1742 83.2152 91.4173C83.5229 91.6574 83.9045 91.7774 84.36 91.7774Z" fill="#888888"/>
<g filter="url(#filter0_d_119_93)">
<rect x="5.11377" y="0.5" width="129" height="129" rx="5.5" stroke="#D0CDCD" stroke-dasharray="2 1" shape-rendering="crispEdges"/>
</g>
<defs>
<filter id="filter0_d_119_93" x="0.61377" y="0" width="138" height="138" filterUnits="userSpaceOnUse" color-interpolation-filters="sRGB">
<feFlood flood-opacity="0" result="BackgroundImageFix"/>
<feColorMatrix in="SourceAlpha" type="matrix" values="0 0 0 0 0 0 0 0 0 0 0 0 0 0 0 0 0 0 127 0" result="hardAlpha"/>
<feOffset dy="4"/>
<feGaussianBlur stdDeviation="2"/>
<feComposite in2="hardAlpha" operator="out"/>
<feColorMatrix type="matrix" values="0 0 0 0 0 0 0 0 0 0 0 0 0 0 0 0 0 0 0.25 0"/>
<feBlend mode="normal" in2="BackgroundImageFix" result="effect1_dropShadow_119_93"/>
<feBlend mode="normal" in="SourceGraphic" in2="effect1_dropShadow_119_93" result="shape"/>
</filter>
</defs>
</svg>
